name Walk9.mot
datacolumns 19
datarows 25
range 1.75500000 1.77900000
endheader

                time	   L_ground_force_vx	   L_ground_force_vy	   L_ground_force_vz	   L_ground_force_px	   L_ground_force_py	   L_ground_force_pz	   R_ground_force_vx	   R_ground_force_vy	   R_ground_force_vz	   R_ground_force_px	   R_ground_force_py	   R_ground_force_pz	   L_ground_torque_x	   L_ground_torque_y	   L_ground_torque_z	   R_ground_torque_x	   R_ground_torque_y	   R_ground_torque_z	
          1.75500000	         35.18400231	        975.25302890	         75.54798724	         -0.20481721	          0.00000000	         -0.06853034	          0.00000000	          0.00000000	          0.00000000	          0.00000000	          0.00000000	          0.00000000	          0.00000000	          1.53203276	          0.00000000	          0.00000000	          0.00000000	          0.00000000	
          1.75600000	         35.62956257	        975.78311363	         75.64170529	         -0.20440742	          0.00000000	         -0.06860867	          0.00000000	          0.00000000	          0.00000000	          0.00000000	          0.00000000	          0.00000000	          0.00000000	          1.54739900	          0.00000000	          0.00000000	          0.00000000	          0.00000000	
          1.75700000	         35.98324463	        976.28420740	         75.74110017	         -0.20400665	          0.00000000	         -0.06869893	          0.00000000	          0.00000000	          0.00000000	          0.00000000	          0.00000000	          0.00000000	          0.00000000	          1.58018248	          0.00000000	          0.00000000	          0.00000000	          0.00000000	
          1.75800000	         36.25646510	        976.80790555	         75.86499565	         -0.20362614	          0.00000000	         -0.06878103	          0.00000000	          0.00000000	          0.00000000	          0.00000000	          0.00000000	          0.00000000	          0.00000000	          1.62479984	          0.00000000	          0.00000000	          0.00000000	          0.00000000	
          1.75900000	         36.50928637	        977.38954977	         76.01554535	         -0.20326902	          0.00000000	         -0.06883107	          0.00000000	          0.00000000	          0.00000000	          0.00000000	          0.00000000	          0.00000000	          0.00000000	          1.66874201	          0.00000000	          0.00000000	          0.00000000	          0.00000000	
          1.76000000	         36.81370814	        978.02595543	         76.18713996	         -0.20293165	          0.00000000	         -0.06883145	          0.00000000	          0.00000000	          0.00000000	          0.00000000	          0.00000000	          0.00000000	          0.00000000	          1.70075442	          0.00000000	          0.00000000	          0.00000000	          0.00000000	
          1.76100000	         37.20998341	        978.68291630	         76.37084967	         -0.20260688	          0.00000000	         -0.06878647	          0.00000000	          0.00000000	          0.00000000	          0.00000000	          0.00000000	          0.00000000	          0.00000000	          1.71497008	          0.00000000	          0.00000000	          0.00000000	          0.00000000	
          1.76200000	         37.69607503	        979.35156140	         76.55365354	         -0.20228777	          0.00000000	         -0.06872185	          0.00000000	          0.00000000	          0.00000000	          0.00000000	          0.00000000	          0.00000000	          0.00000000	          1.70868281	          0.00000000	          0.00000000	          0.00000000	          0.00000000	
          1.76300000	         38.24317677	        980.06748155	         76.71634141	         -0.20197020	          0.00000000	         -0.06866599	          0.00000000	          0.00000000	          0.00000000	          0.00000000	          0.00000000	          0.00000000	          0.00000000	          1.68261824	          0.00000000	          0.00000000	          0.00000000	          0.00000000	
          1.76400000	         38.81498204	        980.85677058	         76.83481242	         -0.20165338	          0.00000000	         -0.06863773	          0.00000000	          0.00000000	          0.00000000	          0.00000000	          0.00000000	          0.00000000	          0.00000000	          1.64570551	          0.00000000	          0.00000000	          0.00000000	          0.00000000	
          1.76500000	         39.37957423	        981.69024871	         76.89118318	         -0.20133936	          0.00000000	         -0.06864578	          0.00000000	          0.00000000	          0.00000000	          0.00000000	          0.00000000	          0.00000000	          0.00000000	          1.61480181	          0.00000000	          0.00000000	          0.00000000	          0.00000000	
          1.76600000	         39.90931952	        982.49149302	         76.88810931	         -0.20103102	          0.00000000	         -0.06868878	          0.00000000	          0.00000000	          0.00000000	          0.00000000	          0.00000000	          0.00000000	          0.00000000	          1.60641673	          0.00000000	          0.00000000	          0.00000000	          0.00000000	
          1.76700000	         40.38256084	        983.18220314	         76.85385934	         -0.20072802	          0.00000000	         -0.06875856	          0.00000000	          0.00000000	          0.00000000	          0.00000000	          0.00000000	          0.00000000	          0.00000000	          1.62502030	          0.00000000	          0.00000000	          0.00000000	          0.00000000	
          1.76800000	         40.79455733	        983.74474963	         76.83004850	         -0.20042777	          0.00000000	         -0.06884158	          0.00000000	          0.00000000	          0.00000000	          0.00000000	          0.00000000	          0.00000000	          0.00000000	          1.65823735	          0.00000000	          0.00000000	          0.00000000	          0.00000000	
          1.76900000	         41.16511015	        984.24309208	         76.84709865	         -0.20013231	          0.00000000	         -0.06891350	          0.00000000	          0.00000000	          0.00000000	          0.00000000	          0.00000000	          0.00000000	          0.00000000	          1.68535990	          0.00000000	          0.00000000	          0.00000000	          0.00000000	
          1.77000000	         41.53850487	        984.77370111	         76.91005680	         -0.19984795	          0.00000000	         -0.06894863	          0.00000000	          0.00000000	          0.00000000	          0.00000000	          0.00000000	          0.00000000	          0.00000000	          1.69037755	          0.00000000	          0.00000000	          0.00000000	          0.00000000	
          1.77100000	         41.97137651	        985.40227769	         77.00501034	         -0.19957763	          0.00000000	         -0.06894265	          0.00000000	          0.00000000	          0.00000000	          0.00000000	          0.00000000	          0.00000000	          0.00000000	          1.67008332	          0.00000000	          0.00000000	          0.00000000	          0.00000000	
          1.77200000	         42.50447707	        986.12276790	         77.11118746	         -0.19931548	          0.00000000	         -0.06891466	          0.00000000	          0.00000000	          0.00000000	          0.00000000	          0.00000000	          0.00000000	          0.00000000	          1.63330420	          0.00000000	          0.00000000	          0.00000000	          0.00000000	
          1.77300000	         43.14076825	        986.85858873	         77.20308602	         -0.19904676	          0.00000000	         -0.06889010	          0.00000000	          0.00000000	          0.00000000	          0.00000000	          0.00000000	          0.00000000	          0.00000000	          1.59292169	          0.00000000	          0.00000000	          0.00000000	          0.00000000	
          1.77400000	         43.84407793	        987.52183750	         77.25104036	         -0.19875789	          0.00000000	         -0.06888868	          0.00000000	          0.00000000	          0.00000000	          0.00000000	          0.00000000	          0.00000000	          0.00000000	          1.56137049	          0.00000000	          0.00000000	          0.00000000	          0.00000000	
          1.77500000	         44.55020957	        988.07602258	         77.23857731	         -0.19845050	          0.00000000	         -0.06891820	          0.00000000	          0.00000000	          0.00000000	          0.00000000	          0.00000000	          0.00000000	          0.00000000	          1.55172302	          0.00000000	          0.00000000	          0.00000000	          0.00000000	
          1.77600000	         45.19681089	        988.54518309	         77.18232248	         -0.19814345	          0.00000000	         -0.06897093	          0.00000000	          0.00000000	          0.00000000	          0.00000000	          0.00000000	          0.00000000	          0.00000000	          1.57168842	          0.00000000	          0.00000000	          0.00000000	          0.00000000	
          1.77700000	         45.76164925	        988.98113066	         77.13004136	         -0.19785785	          0.00000000	         -0.06902816	          0.00000000	          0.00000000	          0.00000000	          0.00000000	          0.00000000	          0.00000000	          0.00000000	          1.61260108	          0.00000000	          0.00000000	          0.00000000	          0.00000000	
          1.77800000	         46.27112674	        989.42668179	         77.13809232	         -0.19759911	          0.00000000	         -0.06906745	          0.00000000	          0.00000000	          0.00000000	          0.00000000	          0.00000000	          0.00000000	          0.00000000	          1.65263343	          0.00000000	          0.00000000	          0.00000000	          0.00000000	
          1.77900000	         46.77540475	        989.90384518	         77.23934752	         -0.19735659	          0.00000000	         -0.06906860	          0.00000000	          0.00000000	          0.00000000	          0.00000000	          0.00000000	          0.00000000	          0.00000000	          1.67265278	          0.00000000	          0.00000000	          0.00000000	          0.00000000	
